<svg width="81" height="81" viewBox="0 0 81 81" fill="none" xmlns="http://www.w3.org/2000/svg">
<path d="M11.9686 54.7971L19.5311 11.9533C19.584 11.63 19.7007 11.3204 19.8744 11.0426C20.0481 10.7648 20.2754 10.5243 20.543 10.3353C20.8106 10.1462 21.1132 10.0123 21.433 9.94137C21.7529 9.87043 22.0837 9.86388 22.4061 9.92208L39.6561 12.9533C40.3079 13.0752 40.8858 13.4479 41.2656 13.9914C41.6455 14.5348 41.7969 15.2056 41.6874 15.8596L34.0936 58.9533C33.5736 61.8551 31.9384 64.4379 29.5379 66.1492C27.1375 67.8605 24.1626 68.5641 21.2499 68.1096C15.0311 67.1096 10.8749 61.0158 11.9686 54.7971Z" stroke="white" stroke-width="3" stroke-linecap="round" stroke-linejoin="round"/>
<path d="M37.4678 39.7349L60.249 31.4536C60.5587 31.3392 60.8881 31.2874 61.2179 31.3009C61.5478 31.3145 61.8717 31.3933 62.171 31.5328C62.4703 31.6723 62.7389 31.8696 62.9615 32.1135C63.1841 32.3573 63.3561 32.6429 63.4678 32.9536L69.4678 49.3911C69.6891 50.0128 69.6556 50.6968 69.3746 51.2939C69.0936 51.891 68.5879 52.3528 67.9678 52.5786L26.8428 67.5473" stroke="white" stroke-width="3" stroke-linecap="round" stroke-linejoin="round"/>
<path d="M69.25 51.5156V65.7344C69.25 66.3974 68.9866 67.0333 68.5178 67.5021C68.0489 67.971 67.413 68.2344 66.75 68.2344H23" stroke="white" stroke-width="3" stroke-linecap="round" stroke-linejoin="round"/>
<path d="M23 60.7344C25.0711 60.7344 26.75 59.0554 26.75 56.9844C26.75 54.9133 25.0711 53.2344 23 53.2344C20.9289 53.2344 19.25 54.9133 19.25 56.9844C19.25 59.0554 20.9289 60.7344 23 60.7344Z" fill="white"/>
</svg>
